<svg viewBox="0 0 330 200" xmlns="http://www.w3.org/2000/svg"><g><g><g><g><g><line x1="31.125" y1="176" x2="26.125" y2="176" style="visibility: inherit;" fill="rgb(0, 0, 0)" stroke="rgb(204, 204, 204)" stroke-width="1px"></line><line x1="31.125" y1="154" x2="26.125" y2="154" style="visibility: inherit;" fill="rgb(0, 0, 0)" stroke="rgb(204, 204, 204)" stroke-width="1px"></line><line x1="31.125" y1="132" x2="26.125" y2="132" style="visibility: inherit;" fill="rgb(0, 0, 0)" stroke="rgb(204, 204, 204)" stroke-width="1px"></line><line x1="31.125" y1="110" x2="26.125" y2="110" style="visibility: inherit;" fill="rgb(0, 0, 0)" stroke="rgb(204, 204, 204)" stroke-width="1px"></line><line x1="31.125" y1="88" x2="26.125" y2="88" style="visibility: inherit;" fill="rgb(0, 0, 0)" stroke="rgb(204, 204, 204)" stroke-width="1px"></line><line x1="31.125" y1="66" x2="26.125" y2="66" style="visibility: inherit;" fill="rgb(0, 0, 0)" stroke="rgb(204, 204, 204)" stroke-width="1px"></line><line x1="31.125" y1="44" x2="26.125" y2="44" style="visibility: inherit;" fill="rgb(0, 0, 0)" stroke="rgb(204, 204, 204)" stroke-width="1px"></line><line x1="31.125" y1="22" x2="26.125" y2="22" style="visibility: inherit;" fill="rgb(0, 0, 0)" stroke="rgb(204, 204, 204)" stroke-width="1px"></line><line x1="31.125" y1="0" x2="26.125" y2="0" style="visibility: inherit;" fill="rgb(0, 0, 0)" stroke="rgb(204, 204, 204)" stroke-width="1px"></line></g><g transform="translate(21.125, 0)"><text x="0" y="176" dx="0em" dy="0.3em" style="text-anchor: end; visibility: hidden; font-family: Roboto, sans-serif; font-size: 12px; font-weight: 200;" fill="rgb(50, 49, 63)" stroke="none" stroke-width="1px">-5</text><text x="0" y="154" dx="0em" dy="0.3em" style="text-anchor: end; visibility: inherit; font-family: Roboto, sans-serif; font-size: 12px; font-weight: 200;" fill="rgb(50, 49, 63)" stroke="none" stroke-width="1px">0</text><text x="0" y="132" dx="0em" dy="0.3em" style="text-anchor: end; visibility: hidden; font-family: Roboto, sans-serif; font-size: 12px; font-weight: 200;" fill="rgb(50, 49, 63)" stroke="none" stroke-width="1px">5</text><text x="0" y="110" dx="0em" dy="0.3em" style="text-anchor: end; visibility: inherit; font-family: Roboto, sans-serif; font-size: 12px; font-weight: 200;" fill="rgb(50, 49, 63)" stroke="none" stroke-width="1px">10</text><text x="0" y="88" dx="0em" dy="0.3em" style="text-anchor: end; visibility: hidden; font-family: Roboto, sans-serif; font-size: 12px; font-weight: 200;" fill="rgb(50, 49, 63)" stroke="none" stroke-width="1px">15</text><text x="0" y="66" dx="0em" dy="0.3em" style="text-anchor: end; visibility: inherit; font-family: Roboto, sans-serif; font-size: 12px; font-weight: 200;" fill="rgb(50, 49, 63)" stroke="none" stroke-width="1px">20</text><text x="0" y="44" dx="0em" dy="0.3em" style="text-anchor: end; visibility: hidden; font-family: Roboto, sans-serif; font-size: 12px; font-weight: 200;" fill="rgb(50, 49, 63)" stroke="none" stroke-width="1px">25</text><text x="0" y="22" dx="0em" dy="0.3em" style="text-anchor: end; visibility: inherit; font-family: Roboto, sans-serif; font-size: 12px; font-weight: 200;" fill="rgb(50, 49, 63)" stroke="none" stroke-width="1px">30</text><text x="0" y="0" dx="0em" dy="0.3em" style="text-anchor: end; visibility: hidden; font-family: Roboto, sans-serif; font-size: 12px; font-weight: 200;" fill="rgb(50, 49, 63)" stroke="none" stroke-width="1px">35</text></g><line x1="31.125" y1="0" x2="31.125" y2="176" fill="rgb(0, 0, 0)" stroke="rgb(204, 204, 204)" stroke-width="1px"></line></g></g><g transform="translate(31, 0)" clip-path="url(#clip_0)"><clipPath id="clip_0"><rect width="298" height="176"></rect></clipPath><g><g><g><line x1="0" y1="0" x2="0" y2="176" fill="rgb(0, 0, 0)" stroke="rgb(60, 60, 60)" stroke-width="1px" opacity="0.25"></line><line x1="37.359375" y1="0" x2="37.359375" y2="176" fill="rgb(0, 0, 0)" stroke="rgb(60, 60, 60)" stroke-width="1px" opacity="0.25"></line><line x1="74.71875" y1="0" x2="74.71875" y2="176" fill="rgb(0, 0, 0)" stroke="rgb(60, 60, 60)" stroke-width="1px" opacity="0.25"></line><line x1="112.078125" y1="0" x2="112.078125" y2="176" fill="rgb(0, 0, 0)" stroke="rgb(60, 60, 60)" stroke-width="1px" opacity="0.25"></line><line x1="149.4375" y1="0" x2="149.4375" y2="176" fill="rgb(0, 0, 0)" stroke="rgb(60, 60, 60)" stroke-width="1px" opacity="0.25"></line><line x1="186.796875" y1="0" x2="186.796875" y2="176" fill="rgb(0, 0, 0)" stroke="rgb(60, 60, 60)" stroke-width="1px" opacity="0.25"></line><line x1="224.15625" y1="0" x2="224.15625" y2="176" fill="rgb(0, 0, 0)" stroke="rgb(60, 60, 60)" stroke-width="1px" opacity="0.25"></line><line x1="261.515625" y1="0" x2="261.515625" y2="176" fill="rgb(0, 0, 0)" stroke="rgb(60, 60, 60)" stroke-width="1px" opacity="0.25"></line><line x1="298.875" y1="0" x2="298.875" y2="176" fill="rgb(0, 0, 0)" stroke="rgb(60, 60, 60)" stroke-width="1px" opacity="0.25"></line></g><g><line x1="0" y1="176" x2="298.875" y2="176" fill="rgb(0, 0, 0)" stroke="rgb(60, 60, 60)" stroke-width="1px" opacity="0.25"></line><line x1="0" y1="154" x2="298.875" y2="154" fill="rgb(0, 0, 0)" stroke="rgb(60, 60, 60)" stroke-width="1px" opacity="0.25"></line><line x1="0" y1="132" x2="298.875" y2="132" fill="rgb(0, 0, 0)" stroke="rgb(60, 60, 60)" stroke-width="1px" opacity="0.25"></line><line x1="0" y1="110" x2="298.875" y2="110" fill="rgb(0, 0, 0)" stroke="rgb(60, 60, 60)" stroke-width="1px" opacity="0.25"></line><line x1="0" y1="88" x2="298.875" y2="88" fill="rgb(0, 0, 0)" stroke="rgb(60, 60, 60)" stroke-width="1px" opacity="0.25"></line><line x1="0" y1="66" x2="298.875" y2="66" fill="rgb(0, 0, 0)" stroke="rgb(60, 60, 60)" stroke-width="1px" opacity="0.25"></line><line x1="0" y1="44" x2="298.875" y2="44" fill="rgb(0, 0, 0)" stroke="rgb(60, 60, 60)" stroke-width="1px" opacity="0.25"></line><line x1="0" y1="22" x2="298.875" y2="22" fill="rgb(0, 0, 0)" stroke="rgb(60, 60, 60)" stroke-width="1px" opacity="0.25"></line><line x1="0" y1="0" x2="298.875" y2="0" fill="rgb(0, 0, 0)" stroke="rgb(60, 60, 60)" stroke-width="1px" opacity="0.25"></line></g></g></g><g><g><line x1="0" y1="154" x2="298.875" y2="154" fill="rgb(0, 0, 0)" stroke="rgb(153, 153, 153)" stroke-width="1.5px"></line></g></g><g><g><line x1="37.359375" y1="0" x2="37.359375" y2="176" fill="rgb(0, 0, 0)" stroke="rgb(153, 153, 153)" stroke-width="1.5px"></line></g></g><g><g><g><g><g><path stroke="rgb(255, 112, 67)" stroke-width="2px" d="M47.5846359375,-9.330788203352459L49.0453875,4.607802522526143L50.506139062500004,15.13088928464373L51.966890625,24.60976840584313L53.4276421875,31.895975914940603L54.88839375,38.06749818629101L56.3491453125,42.995415032614815L57.80989687500001,46.26156754588713L59.2706484375,49.75858477252305L60.7314,42.26807921347562L62.1921515625,42.299093744606296L63.652903125,45.66555650639239L65.1136546875,49.279872749231686L66.57440625,53.021820837066386L68.0351578125,56.520049430696105L69.495909375,58.90406237997574L70.9566609375,61.49253752083486L72.4174125,63.74609410379731L73.8781640625,65.51006107445525L75.338915625,67.12812039843908L76.79966718749999,68.06375338466307L78.26041875000001,68.95601228331871L79.7211703125,70.2904083987676L81.181921875,70.65456372328143L82.6426734375,71.29897794347019L84.103425,72.54802608668102L85.5641765625,73.11793616262139L87.024928125,73.94916198994314L88.4856796875,74.70133589097831L89.94643125,75.62784103388945L91.4071828125,75.60294424420303L92.86793437499999,76.18288501791355L94.32868593750001,76.31965136017392L95.7894375,77.09163151537848L97.2501890625,77.37529751297023L98.71094062499999,77.75669858853209L100.17169218749999,78.31290068404158L101.63244375000001,78.55861992706906L103.0931953125,79.0122910969136L104.553946875,78.97121468500107L106.0146984375,79.51680779051325L107.47545,79.61888319725946L108.9362015625,80.1553292469762L110.396953125,80.76583609799533L111.8577046875,80.4633416856512L113.31845625,80.47544611246498L114.77920781249999,80.65870608300665L116.23995937500001,80.76162257558533L117.7007109375,81.23873257855463L119.1614625,82.02132121217211L120.62221406249999,81.77279272730321L122.082965625,82.13759531411635L123.54371718750001,82.34591595311826L125.00446875,82.34770887362878L126.4652203125,82.4790269355054L127.925971875,82.89925484538527L129.3867234375,83.11619414258271L130.847475,83.3061950622098L132.3082265625,83.56803664792157L133.768978125,84.23202178733693L135.2297296875,84.42977230702132L136.69048125,84.26330314251356L138.1512328125,84.54006120069369L139.611984375,84.43859696211543L141.0727359375,84.0151595200427L142.5334875,84.4686161282854L143.9942390625,84.24436913986186L145.454990625,84.5779822627257L146.9157421875,84.39798915621941L148.37649375,84.18791397713007L149.8372453125,84.78698834599484L151.29799687500002,85.06547379983324L152.7587484375,84.69752356823003L154.2195,85.08923435578177L155.6802515625,85.14474041205304L157.141003125,85.55468360270058L158.6017546875,92.37248987963794L160.06250624999998,97.64941326982378L161.5232578125,101.65684843186497L162.98400937499997,104.6245089919803L164.4447609375,106.5635055966042L165.90551250000001,107.87826265972035L167.3662640625,108.86071797180875L168.827015625,109.46075039368097L170.28776718749998,110.39453022278084L171.74851875,110.8210377442642L173.20927031250002,111.17198208259367L174.670021875,111.42830872587456L176.1307734375,111.79330451042709L177.591525,112.29742313594376L179.0522765625,112.02965368015025L180.513028125,112.31955291976007L181.97377968749998,112.63429232924862L183.43453125,112.6893755989652L184.8952828125,113.24690615161543L186.356034375,113.49342414751223L187.81678593750001,113.74341426023585L189.2775375,113.89340832787002L190.7382890625,114.38468421791342L192.19904062499998,114.74281019505469L193.6597921875,114.72888557992343L195.12054375000002,114.9493310122607L196.5812953125,115.14847845965134L198.042046875,115.11660782774392L199.5027984375,115.31220499205651L200.96355,115.30636382775344L202.4243015625,115.47885812209152L203.88505312499998,115.40987545064749L205.3458046875,115.29808591491974L206.80655625,115.43165107898115L208.2673078125,115.71947023112892L209.72805937500002,115.77600174927305L211.1888109375,116.02112045874351L212.6495625,116.02035232895705L214.11031406249998,115.85445169278438L215.571065625,115.96611110966478L217.03181718750002,116.49070716262504L218.49256875,117.67490388131526L219.9533203125,118.44526261077158L221.414071875,118.98139752617973L222.8748234375,119.52131860298813L224.335575,119.71503145720304L225.79632656249998,119.98261910930718L227.25707812500002,120.29101105603841L228.7178296875,120.42324669404785L230.17858125,120.47442760016894L231.63933281250002,120.45937694279179L233.100084375,120.57354601125614L234.5608359375,120.41676783502517L236.02158749999998,120.7556606003071L237.4823390625,120.84987661531122L238.94309062500002,120.96976582819552L240.4038421875,120.77417944320636L241.86459375,120.76594725637793L243.3253453125,120.64836855524277L244.786096875,120.67638090487418L246.2468484375,120.85510832808075L247.70759999999999,120.71242527211702L249.16835156250002,120.87673494842645L250.629103125,121.07388116375802L252.0898546875,121.07952866468547L253.55060625000002,121.07587683626247L255.0113578125,121.0772063233151L256.472109375,121.2927235590037L257.9328609375,121.3269940749774L259.3936125,121.59043640470324L260.8543640625,121.43170210466278L262.315115625,121.40686145749982L263.7758671875,121.55387708262977L265.23661875,121.44848622272238L266.6973703125,121.63517205589905L268.158121875,121.7119835893744L269.6188734375,121.53983038189612L271.079625,121.73925833655954L272.5403765625,121.64067498179413L274.001128125,121.70824501593195L275.4618796875,121.62206698941758L276.92263125,121.69356047563295" style="fill: none;" fill="none"></path></g></g></g></g><g opacity="0.2"><g><g><g><path stroke="rgb(255, 112, 67)" stroke-width="2px" d="M44.6631328125,-13.12960510253907L46.123884374999996,5.130401611328125L47.5846359375,16.561599731445312L49.0453875,24.930401611328133L50.506139062500004,30.65039825439453L51.966890625,38.68479919433594L53.4276421875,42.75920181274415L54.88839375,47.291196441650385L56.3491453125,50.37119979858397L57.80989687500001,51.15439758300781L59.2706484375,55L60.7314,31.03760375976563L62.1921515625,42.34560241699219L63.652903125,50.71439590454102L65.1136546875,54.70079650878907L66.57440625,58.6344009399414L68.0351578125,61.7672004699707L69.495909375,62.480003356933594L70.9566609375,65.37519912719728L72.4174125,67.12640228271485L73.8781640625,68.15599899291993L75.338915625,69.55520248413086L76.79966718749999,69.46720046997069L78.26041875000001,70.29439926147461L79.7211703125,72.29200134277343L81.181921875,71.20079650878907L82.6426734375,72.2655990600586L84.103425,74.42159805297851L85.5641765625,73.9728012084961L87.024928125,75.19600067138671L88.4856796875,75.82959671020507L89.94643125,77.01759872436523L91.4071828125,75.56559906005859L92.86793437499999,77.05279617309571L94.32868593750001,76.52480087280273L95.7894375,78.24960174560547L97.2501890625,77.80079650878906L98.71094062499999,78.32880020141602L100.17169218749999,79.1472038269043L101.63244375000001,78.92719879150391L103.0931953125,79.69279785156249L104.553946875,78.90960006713868L106.0146984375,80.33519744873047L107.47545,79.77199630737306L108.9362015625,80.95999832153319L110.396953125,81.68159637451171L111.8577046875,80.00960006713868L113.31845625,80.49360275268555L114.77920781249999,80.93359603881837L116.23995937500001,80.91599731445314L117.7007109375,81.95439758300782L119.1614625,83.19520416259766L120.62221406249999,81.4L122.082965625,82.68479919433594L123.54371718750001,82.65839691162108L125.00446875,82.35039825439452L126.4652203125,82.6760040283203L127.925971875,83.52959671020508L129.3867234375,83.44160308837891L130.847475,83.5911964416504L132.3082265625,83.96079902648927L133.768978125,85.22799949645997L135.2297296875,84.72639808654785L136.69048125,84.01359939575195L138.1512328125,84.95519828796387L139.611984375,84.28640060424806L141.0727359375,83.3800033569336L142.5334875,85.1488010406494L143.9942390625,83.90799865722656L145.454990625,85.07840194702149L146.9157421875,84.12799949645995L148.37649375,83.8728012084961L149.8372453125,85.68559989929199L151.29799687500002,85.48320198059082L152.7587484375,84.1455982208252L154.2195,85.67680053710939L155.6802515625,85.22799949645997L157.141003125,86.16959838867189L158.6017546875,102.59919929504395L160.06250624999998,105.56479835510254L161.5232578125,107.66800117492676L162.98400937499997,109.07599983215331L164.4447609375,109.47200050354004L165.90551250000001,109.85039825439452L167.3662640625,110.33440093994142L168.827015625,110.36079902648925L170.28776718749998,111.79519996643066L171.74851875,111.46079902648927L173.20927031250002,111.69839859008789L174.670021875,111.81279869079589L176.1307734375,112.34079818725587L177.591525,113.05360107421876L179.0522765625,111.62799949645995L180.513028125,112.7544017791748L181.97377968749998,113.10640144348145L183.43453125,112.77200050354003L184.8952828125,114.08320198059081L186.356034375,113.86320114135742L187.81678593750001,114.1183994293213L189.2775375,114.1183994293213L190.7382890625,115.12159805297853L192.19904062499998,115.27999916076661L193.6597921875,114.70799865722657L195.12054375000002,115.27999916076661L196.5812953125,115.44719963073732L198.042046875,115.06880187988281L199.5027984375,115.6056007385254L200.96355,115.29760208129883L202.4243015625,115.73759956359862L203.88505312499998,115.30640144348143L205.3458046875,115.13040161132812L206.80655625,115.63199882507325L208.2673078125,116.15119895935058L209.72805937500002,115.86079902648925L211.1888109375,116.38879852294923L212.6495625,116.01920013427736L214.11031406249998,115.6056007385254L215.571065625,116.13360023498535L217.03181718750002,117.27760124206543L218.49256875,119.45119895935059L219.9533203125,119.60080070495604L221.414071875,119.78559989929198L222.8748234375,120.33120021820068L224.335575,120.0056007385254L225.79632656249998,120.38400058746339L227.25707812500002,120.75359897613527L228.7178296875,120.62160015106201L230.17858125,120.55119895935059L231.63933281250002,120.43680095672607L233.100084375,120.74479961395264L234.5608359375,120.18160057067871L236.02158749999998,121.26399974822999L237.4823390625,120.99120063781737L238.94309062500002,121.14959964752197L240.4038421875,120.48079986572264L241.86459375,120.75359897613527L243.3253453125,120.47200050354004L244.786096875,120.7183994293213L246.2468484375,121.12319946289062L247.70759999999999,120.49840068817139L249.16835156250002,121.12319946289062L250.629103125,121.36960048675536L252.0898546875,121.08799991607665L253.55060625000002,121.07039909362794L255.0113578125,121.07920055389405L256.472109375,121.61599941253661L257.9328609375,121.37839984893799L259.3936125,121.985599899292L260.8543640625,121.19360065460205L262.315115625,121.36960048675536L263.7758671875,121.77440052032472L265.23661875,121.29039993286133L266.6973703125,121.91520080566406L268.158121875,121.8272008895874L269.6188734375,121.2816005706787L271.079625,122.03840026855468L272.5403765625,121.49279994964598L274.001128125,121.80960006713866L275.4618796875,121.49279994964598L276.92263125,121.80080070495606" style="fill: none;" fill="none"></path></g></g></g></g></g></g><g transform="translate(31, 176)" clip-path="url(#clip_1)"><clipPath id="clip_1"><rect width="298" height="24"></rect></clipPath><g><g><line x1="0" y1="0" x2="0" y2="5" style="visibility: inherit;" fill="rgb(0, 0, 0)" stroke="rgb(204, 204, 204)" stroke-width="1px"></line><line x1="37.359375" y1="0" x2="37.359375" y2="5" style="visibility: inherit;" fill="rgb(0, 0, 0)" stroke="rgb(204, 204, 204)" stroke-width="1px"></line><line x1="74.71875" y1="0" x2="74.71875" y2="5" style="visibility: inherit;" fill="rgb(0, 0, 0)" stroke="rgb(204, 204, 204)" stroke-width="1px"></line><line x1="112.078125" y1="0" x2="112.078125" y2="5" style="visibility: inherit;" fill="rgb(0, 0, 0)" stroke="rgb(204, 204, 204)" stroke-width="1px"></line><line x1="149.4375" y1="0" x2="149.4375" y2="5" style="visibility: inherit;" fill="rgb(0, 0, 0)" stroke="rgb(204, 204, 204)" stroke-width="1px"></line><line x1="186.796875" y1="0" x2="186.796875" y2="5" style="visibility: inherit;" fill="rgb(0, 0, 0)" stroke="rgb(204, 204, 204)" stroke-width="1px"></line><line x1="224.15625" y1="0" x2="224.15625" y2="5" style="visibility: inherit;" fill="rgb(0, 0, 0)" stroke="rgb(204, 204, 204)" stroke-width="1px"></line><line x1="261.515625" y1="0" x2="261.515625" y2="5" style="visibility: inherit;" fill="rgb(0, 0, 0)" stroke="rgb(204, 204, 204)" stroke-width="1px"></line><line x1="298.875" y1="0" x2="298.875" y2="5" style="visibility: inherit;" fill="rgb(0, 0, 0)" stroke="rgb(204, 204, 204)" stroke-width="1px"></line></g><g transform="translate(0, 8)"><text x="0" y="0" dx="0em" dy="0.95em" style="text-anchor: middle; visibility: hidden; font-family: Roboto, sans-serif; font-size: 12px; font-weight: 200;" fill="rgb(50, 49, 63)" stroke="none" stroke-width="1px">-10k</text><text x="37.359375" y="0" dx="0em" dy="0.95em" style="text-anchor: middle; visibility: inherit; font-family: Roboto, sans-serif; font-size: 12px; font-weight: 200;" fill="rgb(50, 49, 63)" stroke="none" stroke-width="1px">0</text><text x="74.71875" y="0" dx="0em" dy="0.95em" style="text-anchor: middle; visibility: inherit; font-family: Roboto, sans-serif; font-size: 12px; font-weight: 200;" fill="rgb(50, 49, 63)" stroke="none" stroke-width="1px">10k</text><text x="112.078125" y="0" dx="0em" dy="0.95em" style="text-anchor: middle; visibility: inherit; font-family: Roboto, sans-serif; font-size: 12px; font-weight: 200;" fill="rgb(50, 49, 63)" stroke="none" stroke-width="1px">20k</text><text x="149.4375" y="0" dx="0em" dy="0.95em" style="text-anchor: middle; visibility: inherit; font-family: Roboto, sans-serif; font-size: 12px; font-weight: 200;" fill="rgb(50, 49, 63)" stroke="none" stroke-width="1px">30k</text><text x="186.796875" y="0" dx="0em" dy="0.95em" style="text-anchor: middle; visibility: inherit; font-family: Roboto, sans-serif; font-size: 12px; font-weight: 200;" fill="rgb(50, 49, 63)" stroke="none" stroke-width="1px">40k</text><text x="224.15625" y="0" dx="0em" dy="0.95em" style="text-anchor: middle; visibility: inherit; font-family: Roboto, sans-serif; font-size: 12px; font-weight: 200;" fill="rgb(50, 49, 63)" stroke="none" stroke-width="1px">50k</text><text x="261.515625" y="0" dx="0em" dy="0.95em" style="text-anchor: middle; visibility: inherit; font-family: Roboto, sans-serif; font-size: 12px; font-weight: 200;" fill="rgb(50, 49, 63)" stroke="none" stroke-width="1px">60k</text><text x="298.875" y="0" dx="0em" dy="0.95em" style="text-anchor: middle; visibility: hidden; font-family: Roboto, sans-serif; font-size: 12px; font-weight: 200;" fill="rgb(50, 49, 63)" stroke="none" stroke-width="1px">70k</text></g><line x1="0" y1="0" x2="298.875" y2="0" fill="rgb(0, 0, 0)" stroke="rgb(204, 204, 204)" stroke-width="1px"></line></g></g></g></g></svg>